<?xml version="1.0" standalone="no"?>
<!DOCTYPE svg PUBLIC "-//W3C//DTD SVG 20010904//EN"
 "http://www.w3.org/TR/2001/REC-SVG-20010904/DTD/svg10.dtd">
<svg version="1.0" xmlns="http://www.w3.org/2000/svg"
 width="257.000000pt" height="257.000000pt" viewBox="0 0 257.000000 257.000000"
 preserveAspectRatio="xMidYMid meet">
<metadata>
Created by potrace 1.14, written by Peter Selinger 2001-2017
</metadata>
<g transform="translate(0.000000,257.000000) scale(0.100000,-0.100000)"
fill="#000000" stroke="none">
<path d="M920 2469 c-25 -4 -61 -10 -80 -13 -193 -31 -240 -88 -266 -326 -2
-19 -7 -62 -10 -95 -10 -84 -10 -518 -1 -590 4 -33 10 -94 12 -135 3 -41 8
-109 12 -150 3 -41 7 -86 8 -100 2 -14 5 -41 8 -60 3 -19 9 -66 12 -105 3 -38
8 -83 10 -100 7 -48 15 -134 20 -215 23 -364 38 -401 173 -435 167 -42 319
-58 562 -59 154 0 233 8 334 34 136 35 188 78 200 167 3 22 8 52 11 65 12 52
21 186 30 448 3 85 7 166 10 180 2 14 7 59 10 100 3 41 7 91 10 110 5 41 13
115 20 185 2 28 7 73 11 100 3 28 8 77 10 110 2 33 6 89 9 125 9 92 10 396 2
454 -9 63 -27 127 -43 146 -6 8 -15 25 -18 37 -6 17 -66 52 -66 38 0 -3 -12 0
-26 5 -30 12 -297 60 -364 66 -25 2 -61 7 -80 10 -54 10 -470 12 -520 3z"/>
</g>
</svg>
